<?xml version="1.0" encoding="utf-8"?>
<!-- Generator: Adobe Illustrator 24.1.1, SVG Export Plug-In . SVG Version: 6.00 Build 0)  -->
<svg version="1.1" id="Layer_1" xmlns="http://www.w3.org/2000/svg" xmlns:xlink="http://www.w3.org/1999/xlink" x="0px" y="0px"
	 viewBox="0 0 252.1 423" style="enable-background:new 0 0 252.1 423;" xml:space="preserve">
<style type="text/css">
	.st0{fill:url(#SVGID_1_);}
	.st1{fill:#ED1C24;}
</style>
<g>
	<g>
		<g>
			
				<linearGradient id="SVGID_1_" gradientUnits="userSpaceOnUse" x1="201.9274" y1="54.5749" x2="-7.5289" y2="412.5209" gradientTransform="matrix(1.0631 3.700000e-03 1.150000e-02 -1.0554 19.617 458.2303)">
				<stop  offset="0" style="stop-color:#96272D"/>
				<stop  offset="4.903582e-02" style="stop-color:#A0262C"/>
				<stop  offset="0.2695" style="stop-color:#CA2028"/>
				<stop  offset="0.443" style="stop-color:#E31D25"/>
				<stop  offset="0.547" style="stop-color:#ED1C24"/>
				<stop  offset="0.5524" style="stop-color:#ED1C24"/>
				<stop  offset="1" style="stop-color:#A3272D"/>
			</linearGradient>
			<path class="st0" d="M231.7,397.2c1.3,3-0.2,6.6-3.3,7.8L189,421.3c-3.1,1.3-6.6-0.2-7.8-3.3L19.6,27c-1.3-3,0.2-6.6,3.3-7.8
				L62.2,2.9c3-1.3,6.6,0.2,7.8,3.3L231.7,397.2z"/>
		</g>
		<g>
			<path class="st1" d="M70.4,414.1l-2.1,5.9c-0.6,1.7-2.3,3-4.3,3h-8.4c-22.7,0-41.1-18.4-41.1-41.1C6.1,332.7-0.4,273.2,0,205.7
				c0.4-62.6,6.5-118,14.6-164.5c0-2.7,0.3-17.3,12.1-29.1C34.1,4.6,44.4,0,55.8,0H64c2.5,0,4.5,2,4.5,4.5l37.7,304.2
				c1.2,9.4-0.1,18.9-3.7,27.6L70.4,414.1z"/>
		</g>
		<g>
			<path class="st1" d="M237.6,381.9c0,22.6-18.5,41.1-41.1,41.1h-8.6c-2.4,0-4.3-1.9-4.3-4.3L148.4,120c-1-8.5,0-17.1,2.9-25.2
				l32.2-90.3c0-0.1,0.1-0.3,0.1-0.4c0.1-2.3,2-4.1,4.3-4.1h9c22.5,0,40.7,18.2,40.7,40.7c8.2,48,14.6,105.8,14.6,171.4
				C252.1,277.1,245.7,334.3,237.6,381.9z"/>
		</g>
	</g>
</g>
</svg>
